<svg height="486pt" viewBox="-24 0 486 486.04329" width="486pt" xmlns="http://www.w3.org/2000/svg"><path d="m429.644531 344.941406v114.683594c0 10.175781-8.246093 18.425781-18.421875 18.429688h-219c-10.179687 0-18.429687-8.253907-18.429687-18.429688v-21.953125h199.421875c10.179687.003906 18.429687-8.25 18.429687-18.429687v-92.730469h19.578125c10.175782.003906 18.421875 8.257812 18.421875 18.429687zm0 0" fill="#3bb54a"/><path d="m397.292969 158.402344h-389.269531l194.878906-150.367188zm0 0" fill="#00acea"/><path d="m173.792969 437.671875h-19.578125c-10.175782 0-18.421875-8.253906-18.421875-18.429687v-114.679688c0-10.175781 8.246093-18.425781 18.421875-18.429688h219c10.179687 0 18.429687 8.25 18.429687 18.429688v114.679688c0 10.179687-8.25 18.433593-18.429687 18.429687zm197.78125-32.910156c-.003907-7.328125-5.945313-13.269531-13.277344-13.269531-7.328125.003906-13.273437 5.945312-13.273437 13.273437 0 7.332031 5.941406 13.273437 13.269531 13.277344 7.335937.003906 13.28125-5.945313 13.28125-13.28125zm-48.691407-42.859375c0-32.679688-26.492187-59.167969-59.167968-59.167969-32.679688 0-59.171875 26.488281-59.171875 59.167969 0 32.679687 26.492187 59.171875 59.171875 59.171875 32.679687 0 59.171875-26.492188 59.167968-59.171875zm-140.46875-43.417969c.003907-7.332031-5.9375-13.277344-13.269531-13.28125s-13.277343 5.9375-13.28125 13.269531c-.003906 7.332032 5.9375 13.277344 13.269531 13.28125 7.332032 0 13.277344-5.941406 13.28125-13.269531zm0 0" fill="#46c43d"/><path d="m358.292969 391.492188c7.332031 0 13.28125 5.941406 13.28125 13.273437s-5.945313 13.277344-13.277344 13.277344-13.277344-5.945313-13.273437-13.28125c.003906-7.324219 5.941406-13.265625 13.269531-13.269531zm0 0" fill="#f4b844"/><path d="m349.773438 286.082031v.050781h-195.558594c-10.175782.003907-18.421875 8.253907-18.421875 18.429688v50.210938l-83.71875-.78125v-195.589844h297.699219zm0 0" fill="#00efd1"/><path d="m322.882812 361.902344c0 32.679687-26.492187 59.171875-59.167968 59.171875-32.679688 0-59.171875-26.492188-59.171875-59.171875 0-32.679688 26.492187-59.167969 59.171875-59.167969 32.675781 0 59.167968 26.488281 59.167968 59.167969zm0 0" fill="#f4b844"/><path d="m169.132812 305.214844c7.328126 0 13.269532 5.941406 13.269532 13.269531s-5.941406 13.269531-13.269532 13.269531c-7.328124 0-13.269531-5.941406-13.269531-13.269531.003907-7.328125 5.941407-13.265625 13.269531-13.269531zm0 0" fill="#f4b844"/><g fill="#083863"><path d="m265.8125 336.792969c4.5625.003906 8.257812 3.699219 8.261719 8.261719 0 4.417968 3.582031 8 8 8s8-3.582032 8-8c-.011719-11.085938-7.527344-20.757813-18.265625-23.511719-.332032-4.261719-3.953125-7.507813-8.226563-7.375-4.273437.132812-7.683593 3.601562-7.75 7.875v.90625c-10.417969 4.699219-16.140625 16.039062-13.738281 27.214843 2.40625 11.175782 12.289062 19.152344 23.71875 19.148438 4.558594.003906 8.253906 3.703125 8.25 8.261719 0 4.558593-3.699219 8.25-8.257812 8.25-4.558594-.003907-8.253907-3.703125-8.25-8.261719 0-4.417969-3.582032-8-8-8-4.417969 0-8 3.582031-8 8 .011718 9.53125 5.59375 18.171875 14.277343 22.101562v2.378907c0 4.417969 3.582031 8 8 8 4.421875 0 8-3.582031 8-8v-.976563c11.847657-3.03125 19.582031-14.402344 18.054688-26.53125-1.53125-12.128906-11.847657-21.226562-24.074219-21.222656-4.5625 0-8.257812-3.699219-8.257812-8.257812 0-4.5625 3.695312-8.261719 8.257812-8.261719zm0 0"/><path d="m263.714844 294.734375c-37.097656 0-67.171875 30.070313-67.171875 67.167969s30.074219 67.171875 67.171875 67.171875 67.167968-30.074219 67.167968-67.171875c-.039062-37.078125-30.089843-67.128906-67.167968-67.167969zm0 118.339844c-28.261719 0-51.171875-22.910157-51.171875-51.171875 0-28.257813 22.910156-51.167969 51.171875-51.167969 28.257812 0 51.167968 22.910156 51.167968 51.167969-.03125 28.25-22.921874 51.140625-51.167968 51.171875zm0 0"/><path d="m411.222656 318.042969h-11.390625v-13.480469c-.097656-14.644531-11.972656-26.476562-26.617187-26.519531h-15.382813v-112h39.460938c3.398437.085937 6.460937-2.03125 7.578125-5.242188 1.117187-3.207031.035156-6.769531-2.675782-8.816406l-194.398437-150.324219c-2.882813-2.21875-6.902344-2.214844-9.78125.015625l-194.882813 150.382813c-2.703124 2.015625-3.789062 5.554687-2.683593 8.742187 1.125 3.199219 4.179687 5.316407 7.574219 5.242188h35.808593v187.949219c.066407 4.417968 3.652344 7.972656 8.066407 8l75.933593.699218v56.550782c0 14.574218 11.8125 26.800781 26.382813 26.800781h11.617187v13.582031c0 14.578125 11.8125 26.402344 26.390625 26.417969h219c14.625 0 26.507813-11.796875 26.609375-26.417969v-114.683594c0-14.570312-12.039062-26.898437-26.609375-26.898437zm-208.324218-300.257813 170.976562 132.257813h-342.386719zm-143.066407 328.28125v-180.023437h282v112h-187.617187c-14.597656.066406-26.390625 11.921875-26.382813 26.519531v42.136719zm84 73.175782v-114.679688c-.019531-5.765625 4.617188-10.464844 10.382813-10.519531h219c5.8125.035156 10.53125 4.707031 10.617187 10.519531v114.679688c-.066406 5.867187-4.753906 10.636718-10.617187 10.800781h-219c-5.746094 0-10.382813-5.046875-10.382813-10.800781zm278 40.382812c-.09375 5.789062-4.816406 10.429688-10.609375 10.417969h-219c-5.746094-.003907-10.398437-4.671875-10.390625-10.417969v-13.582031h191.382813c14.699218-.175781 26.542968-12.101563 26.617187-26.800781v-85.199219h11.390625c5.746094 0 10.609375 5.148437 10.609375 10.898437zm0 0"/><path d="m169.132812 297.214844c-11.746093.003906-21.261718 9.53125-21.257812 21.273437.003906 11.746094 9.527344 21.265625 21.273438 21.265625 11.746093-.003906 21.265624-9.523437 21.265624-21.269531-.011718-11.746094-9.535156-21.261719-21.28125-21.269531zm0 26.539062c-2.910156-.007812-5.261718-2.367187-5.257812-5.277344.003906-2.910156 2.363281-5.265624 5.273438-5.261718 2.90625 0 5.265624 2.359375 5.265624 5.269531-.003906 2.910156-2.367187 5.269531-5.28125 5.269531zm0 0"/><path d="m379.574219 404.761719c-.003907-11.746094-9.527344-21.269531-21.277344-21.269531-11.75.003906-21.273437 9.527343-21.273437 21.273437 0 11.75 9.523437 21.273437 21.269531 21.277344 11.75-.011719 21.269531-9.53125 21.28125-21.28125zm-21.28125 5.28125c-2.910157-.003907-5.269531-2.363281-5.269531-5.277344 0-2.910156 2.363281-5.269531 5.273437-5.273437 2.914063 0 5.273437 2.359374 5.277344 5.269531 0 2.917969-2.363281 5.28125-5.28125 5.28125zm0 0"/></g></svg>